<?xml version="1.0" encoding="UTF-8" standalone="no"?>
<!-- Created with Inkscape (http://www.inkscape.org/) -->

<svg
   width="34.519821mm"
   height="13.085163mm"
   viewBox="0 0 130.46862 49.455735"
   version="1.1"
   id="svg1"
   xmlns="http://www.w3.org/2000/svg"
   xmlns:svg="http://www.w3.org/2000/svg">
  <defs
     id="defs1">
    <rect
       x="141.4435"
       y="139.43721"
       width="536.6828"
       height="186.58504"
       id="rect1" />
  </defs>
  <g
     id="layer1"
     transform="translate(-246.60124,-148.10943)">
    <path
	   fill="#000000"
       d="m 279.80429,172.58603 q -0.39062,0.75521 -0.78125,1.38021 -0.39062,0.59896 -0.98958,1.19791 -0.15625,0.28646 -0.28646,0.23438 -0.13021,-0.0521 -0.28646,-0.26042 -0.44271,-0.52083 -0.96354,-0.83333 -0.52083,-0.3125 -1.11979,-0.70313 -0.15625,-0.15624 -0.10417,-0.28645 0.0521,-0.15625 0.20834,-0.3125 l 1.45833,-2.23959 q 0.13021,-0.20833 0.23437,-0.23437 0.13021,-0.0521 0.41667,0.13021 0.9375,0.57291 1.45833,0.98958 0.54688,0.41667 0.75521,0.9375 z m 89.37495,-0.28646 q 0.85937,0.625 1.40625,1.06771 0.57291,0.41667 0.78125,0.9375 -0.33855,0.75521 -0.78125,1.35417 -0.41667,0.57291 -0.9375,1.17187 -0.23438,0.26042 -0.33854,0.20833 -0.10417,-0.0781 -0.28646,-0.20833 -0.44271,-0.52083 -0.96354,-0.80729 -0.52084,-0.3125 -1.09375,-0.72917 -0.20834,-0.13021 -0.13021,-0.28646 0.0781,-0.18229 0.15625,-0.3125 0.41666,-0.57291 0.78125,-1.0677 0.39062,-0.52084 0.70312,-1.11979 0.20834,-0.46875 0.70313,-0.20834 z m -98.88015,-21.48436 q -0.13021,0.625 -0.46875,1.17187 -0.3125,0.52084 -0.98958,0.625 -0.15625,0.026 -0.28646,0 -0.13021,-0.026 -0.20834,-0.0781 l -0.20833,-0.10417 q -0.13021,0.0781 -0.41667,0.36459 -0.26041,0.26041 -0.88541,0.26041 -0.33854,0 -0.65104,-0.20833 -0.28646,-0.23438 -0.28646,-0.78125 0,-0.28646 0.15625,-0.72917 0.18229,-0.4427 0.36458,-0.65104 0.13021,-0.26041 0.20833,-0.26041 0.10417,-0.026 0,0.26041 -0.0521,0.13021 -0.15625,0.36459 -0.0781,0.20833 -0.026,0.41666 0.18229,0.28646 0.39063,0.36458 0.23437,0.0521 0.52083,0.026 0.10417,0 0.33854,-0.10417 0.26042,-0.10417 0.3125,-0.28646 0.0521,-0.3125 0.0781,-0.59896 0.0521,-0.28645 0.26041,-0.54687 0.1823,-0.15625 0.15625,0.026 -0.026,0.18229 -0.026,0.33854 0,0.13021 -0.026,0.28646 -0.026,0.15625 0.026,0.23437 0.20834,0.33855 0.625,0.23438 0.41667,-0.13021 0.65104,-0.41667 0.0521,-0.10416 0.0521,-0.26041 0,-0.15625 0,-0.28646 0,-0.15625 0.10416,-0.33854 0.10417,-0.20834 0.20834,-0.46875 0,-0.13021 0.0521,-0.18229 0.0781,-0.0521 0.13021,0.15625 0.0781,0.20833 0.026,0.54687 -0.026,0.33854 -0.026,0.625 z m -11.30208,30.39061 q 0.91146,0.65104 1.45833,1.30208 0.54688,0.65104 0.83334,1.14583 -0.39063,0.75521 -0.91146,1.38021 -0.52083,0.625 -1.14583,1.17187 -0.28646,0.20834 -0.41667,0.13021 -0.10417,-0.0521 -0.23438,-0.26041 -0.36458,-0.4948 -0.85937,-0.9375 -0.46875,-0.41667 -0.98958,-0.85938 -0.41667,0.65104 -0.88542,1.17188 -0.46875,0.52083 -0.91146,0.96354 -0.3125,0.3125 -0.46875,0.20833 -0.1302,-0.0781 -0.18229,-0.20833 -0.44271,-0.625 -1.01562,-1.09375 -0.57292,-0.46875 -1.17188,-1.01563 -0.33854,-0.18229 0.18229,-0.57291 0.41667,-0.57292 0.85938,-1.06771 0.44271,-0.52083 0.83333,-1.09375 0.20834,-0.23437 0.36459,-0.28646 0.15625,-0.0521 0.39062,0.18229 0.65104,0.49479 1.11979,0.98959 0.49479,0.49479 0.83333,0.98958 0.41667,-0.54688 0.83334,-1.04167 0.41666,-0.52083 0.85937,-1.09375 0.26042,-0.49479 0.625,-0.10416 z m 12.83853,-24.60936 q 0,1.97916 -0.1302,3.74999 -0.10417,1.77084 -0.59896,3.54167 -0.10417,0.65104 -0.39063,1.40625 -0.26041,0.75521 -0.59895,1.48437 -0.3125,0.70313 -0.625,1.27604 -0.3125,0.54688 -0.59896,0.83334 -0.52083,0.54687 -1.04167,0.91145 -0.49479,0.36459 -1.01562,0.65105 -0.49479,0.26041 -0.88542,0.54687 -0.36458,0.26042 -0.67708,0.65104 -0.36458,0.41667 -0.67708,1.11979 -0.3125,0.70313 -0.625,1.45833 -0.28646,0.72917 -0.57292,1.30209 -0.26042,0.57291 -0.46875,0.65104 -0.88542,0.28646 -2.21354,0.59896 -1.32812,0.28645 -2.34375,0.625 -0.52083,0.15625 -0.52083,-0.0781 0,-0.23437 0.3125,-0.49479 0.59896,-0.49479 1.32812,-0.96354 0.75521,-0.49479 1.51042,-1.01563 0.78125,-0.54687 1.48437,-1.0677 0.72917,-0.54688 1.25,-1.17188 0.33854,-0.41666 0.59896,-1.06771 0.26042,-0.65104 0.52083,-1.27604 0.28646,-0.65104 0.85938,-1.48437 0.57291,-0.85938 1.27604,-1.30208 0.78125,-0.41667 1.53646,-0.78125 0.78124,-0.39063 1.22395,-1.14584 0.10417,-0.46875 0.18229,-1.32812 0.10417,-0.85937 0.15625,-1.82292 0.0781,-0.96354 0.13021,-1.87499 0.0781,-0.91146 0.15625,-1.53646 0.0521,-0.54688 0.0521,-1.09375 0,-0.57292 0.10416,-0.98958 0.0521,-0.23438 0.23438,-0.72917 0.20833,-0.49479 0.39062,-1.04167 0.18229,-0.57291 0.41667,-1.04166 0.23437,-0.49479 0.39062,-0.70313 0.41667,-0.3125 0.3125,0.15625 -0.3125,0.75521 -0.33854,1.45834 -0.026,0.70312 -0.10417,1.58854 z m 5.83333,-1.38021 -0.28645,5.78125 q -0.026,1.19791 -0.18229,2.52604 -0.13021,1.30208 -0.41667,2.44791 -0.15625,0.78125 -0.39063,1.48438 -0.20833,0.67708 -0.41666,1.14583 -0.10417,0.36458 -0.3125,0.39062 -0.20834,0 -0.18229,-0.23437 l 0.15625,-2.39583 0.26041,-6.92708 q 0.0781,-0.625 0.10417,-1.19792 0.0521,-0.59896 0.13021,-1.17187 0.0521,-0.3125 0.20833,-0.78125 0.15625,-0.49479 0.3125,-1.04167 0.18229,-0.57292 0.41667,-1.06771 0.23437,-0.49479 0.49479,-0.83333 0.13021,-0.28646 0.23437,-0.18229 0.13021,0.0781 0.10417,0.33854 0,0.39062 -0.15625,0.83333 -0.13021,0.44271 -0.0781,0.88542 z m 22.55207,-5.91146 q -0.0781,0.57292 -0.41666,1.04167 -0.3125,0.46875 -0.9375,0.57292 -0.20833,0.026 -0.39063,-0.0781 -0.18229,-0.10416 -0.26041,-0.10416 -0.10417,0.0521 -0.33854,0.28645 -0.20834,0.23438 -0.75521,0.28646 -0.3125,0 -0.57292,-0.18229 -0.26041,-0.18229 -0.26041,-0.70312 0,-0.23438 0.10416,-0.65105 0.13021,-0.41666 0.33854,-0.72916 0.15625,-0.15625 0.23438,-0.13021 0.0781,0 -0.026,0.23437 -0.0521,0.1823 -0.13021,0.39063 -0.0781,0.20833 0,0.33854 0.0781,0.20833 0.28646,0.26042 0.23437,0.026 0.4427,0.026 0.15625,0 0.33855,-0.0521 0.20833,-0.0521 0.23437,-0.26042 0.10417,-0.28646 0.15625,-0.54688 0.0521,-0.26041 0.18229,-0.49479 0.18229,-0.0781 0.18229,0.0781 0,0.15625 0,0.26041 0,0.20834 -0.0521,0.3125 -0.026,0.0781 0.0521,0.20834 0.1823,0.3125 0.52084,0.20833 0.33854,-0.10417 0.65104,-0.41667 v -0.46875 q 0,-0.1302 0.0521,-0.3125 0.0781,-0.18229 0.18229,-0.33854 0.0521,-0.15625 0.0521,-0.20833 0.026,-0.0781 0.1302,0.10417 0.026,0.54687 0,1.0677 z m 8.38542,2.68229 q -0.13021,0.44271 -0.15625,0.8073 -0.026,0.36458 -0.0521,0.85937 -0.026,1.53646 -0.026,3.17708 0,1.61458 -0.0521,3.15104 0,1.35417 -0.15625,2.73437 -0.15625,1.35417 -0.28646,2.68229 -0.18229,0.75521 -0.41667,1.53646 -0.20833,0.75521 -0.36458,1.30208 -0.15625,0.36459 -0.33854,0.36459 -0.18229,0 -0.18229,-0.33854 l 0.0521,-2.44792 0.15625,-7.44791 q 0,-0.65104 0.026,-1.25 0.0521,-0.625 0.13021,-1.27604 0.0521,-0.36458 0.18229,-0.91146 0.13021,-0.54687 0.3125,-1.11979 0.20834,-0.57292 0.41667,-1.09375 0.20833,-0.52083 0.39062,-0.91146 0.15625,-0.3125 0.26042,-0.15625 0.13021,0.13021 0.10417,0.33854 z m 44.45309,6.30208 q -0.31249,-0.026 -0.59895,0.26042 -0.26042,0.26042 -0.44271,0.54688 -0.10417,0.15625 -0.0781,0.3125 0.0521,0.1302 0.1823,0.23437 0.1302,0.0781 0.3125,0.10417 0.18229,0.026 0.28645,0.026 0.26042,0.10416 0.65104,0 0.41667,-0.13021 0.4948,-0.33854 0,-0.3125 -0.26042,-0.72917 -0.23438,-0.41667 -0.54688,-0.41667 z m 0.33855,-1.0677 q 0.59895,0.0781 0.83333,0.57291 0.23437,0.46875 0.23437,0.98959 0,0.78124 -0.4427,1.40624 -0.41667,0.59896 -1.09375,0.67709 -0.67709,0.15625 -1.19792,-0.20834 -0.49479,-0.39062 -0.36458,-1.17187 0.10416,-0.36458 0.26041,-0.75521 0.1823,-0.39062 0.44271,-0.75521 0.26042,-0.36458 0.57292,-0.57291 0.3125,-0.20834 0.75521,-0.18229 z m 23.59373,-5.05208 0.0521,1.84895 q 0.1302,1.61459 -0.39063,3.04688 -0.52083,1.40625 -1.27604,2.76041 -1.5625,2.78646 -4.53125,5.02604 -2.9427,2.21354 -6.66666,3.88021 -3.69791,1.66666 -7.9427,2.83854 -4.24479,1.17187 -8.38542,1.77083 -4.11458,0.57291 -7.89062,0.625 -3.77604,0.026 -6.64062,-0.59896 -0.026,0.28646 -0.10416,0.44271 -0.0521,0.15625 -0.23438,0.28646 -0.3125,0.3125 -0.49479,0.18229 -0.18229,-0.15625 -0.36458,-0.3125 -0.57292,-0.52083 -1.40625,-0.65104 -0.80729,-0.15625 -1.58854,0.0521 -0.75521,0.18229 -1.38021,0.57292 -0.625,0.36458 -0.85937,0.85937 -0.57292,1.14583 -0.65105,2.42187 -0.0781,1.25 -0.0781,2.63021 0,1.92708 0.10417,4.03646 0.1302,2.10937 0.20833,4.11458 0.10417,2.03125 0.13021,3.80208 0.026,1.77083 -0.23438,3.02083 -0.0521,0.41667 -0.28646,0.52083 -0.20833,0.13021 -0.26041,-0.625 l -0.41667,-7.0052 q -0.20833,-2.65625 -0.46875,-5.10416 -0.23437,-2.44792 0.0521,-4.79167 0.0781,-1.30208 0.52084,-2.78645 0.44271,-1.48438 1.27604,-2.78646 0.83333,-1.30208 1.97916,-2.10937 1.14584,-0.8073 2.73438,-0.625 0.10416,-0.0521 0.13021,-0.36459 0.0521,-0.33854 0.15625,-0.33854 0.10416,-0.0521 0.20833,0.13021 0.10417,0.15625 0.15625,0.15625 3.59375,0.9375 7.86458,1.01562 4.29687,0.0521 9.11458,-0.59895 3.64583,-0.52084 7.34374,-1.48438 3.69792,-0.96354 7.10937,-2.39583 3.4375,-1.45833 6.38021,-3.30729 2.9427,-1.875 5.10416,-4.14062 0.10417,-0.26042 0.15625,-0.49479 0.0521,-0.26042 0.026,-0.52084 0,-0.67708 -0.10416,-1.27604 -0.0781,-0.59896 0.1302,-1.22396 0.13021,-0.65104 0.49479,-1.22395 0.39063,-0.59896 0.70313,-1.25 0.0521,-0.0781 0.13021,-0.20834 0.0781,-0.1302 0.15625,-0.18229 0.10416,-0.0521 0.15625,0.026 0.0781,0.0521 0.0781,0.33855 z m -46.38018,-1.04167 q 0.15625,-0.28646 0.26042,-0.13021 0.10416,0.15625 0.0781,0.36458 0,0.72917 -0.10416,1.51042 -0.0781,2.73437 -0.026,5.49479 -0.1302,2.36979 -0.54687,4.71354 -0.15625,0.70312 -0.33854,1.38021 -0.18229,0.67708 -0.39063,1.22395 -0.0781,0.28646 -0.28645,0.26042 -0.1823,-0.026 -0.1823,-0.26042 l 0.15625,-2.21354 0.0781,-6.51041 q 0,-1.11979 0.13021,-2.23958 0,-0.33854 0.10416,-0.80729 0.10417,-0.46875 0.26042,-0.96354 0.18229,-0.52084 0.39063,-0.98959 0.23437,-0.49479 0.41666,-0.83333 z m -27.65623,5 q -0.0521,2.21354 -0.0521,4.34895 0,2.13542 -0.41666,4.19271 -0.15625,0.72916 -0.46875,1.64062 -0.3125,0.88542 -0.70313,1.74479 -0.36458,0.83334 -0.72916,1.53646 -0.36459,0.70313 -0.57292,0.98958 -0.52083,0.67709 -1.06771,1.09375 -0.54687,0.39063 -1.0677,0.72917 -0.52084,0.33854 -1.01563,0.75521 -0.46875,0.41666 -0.78125,0.96354 -0.39062,0.59896 -0.65104,1.58854 -0.10417,0.46875 -0.3125,1.04166 -0.18229,0.57292 -0.41667,1.14584 -0.23437,0.54687 -0.49479,0.98958 -0.26041,0.41667 -0.49479,0.59896 -0.39062,0.26041 -0.9375,0.46875 -0.54687,0.18229 -1.17187,0.36458 -0.59896,0.15625 -1.17188,0.36458 -0.54687,0.1823 -1.01562,0.36459 -0.54688,0.15625 -0.52083,-0.0521 0.026,-0.23437 0.28645,-0.625 0.57292,-0.57291 1.32813,-1.19791 0.75521,-0.625 1.48437,-1.22396 0.75521,-0.625 1.45834,-1.30208 0.70312,-0.70313 1.24999,-1.48438 0.41667,-0.59895 0.59896,-1.22395 0.20834,-0.625 0.44271,-1.30209 0.3125,-0.96354 0.75521,-1.82291 0.46875,-0.85938 1.27604,-1.51042 0.78125,-0.54687 1.69271,-1.01562 0.91145,-0.46875 1.32812,-1.35417 0.26042,-0.46875 0.28646,-1.27604 0.026,-0.80729 0.026,-1.30208 l 0.10417,-5.44271 q 0,-0.57291 0,-1.19791 0,-0.65104 0.18229,-1.25 0.0781,-0.26042 0.26042,-0.83333 0.18229,-0.59896 0.39062,-1.22396 0.23438,-0.625 0.52083,-1.22396 0.28646,-0.59896 0.54688,-0.91146 0.0781,-0.15625 0.18229,-0.0781 0.13021,0.0781 0.026,0.3125 -0.3125,0.96354 -0.33854,1.79687 0,0.80729 -0.026,1.82292 z m -8.38541,-2.13542 q 0.85937,-0.20833 1.92708,-0.18229 1.06771,0 1.95312,0.18229 0.3125,0.10417 0.70313,0.3125 0.41666,0.20833 0.33854,0.72917 0,0.13021 -0.18229,0.46875 -0.18229,0.33854 -0.46875,0.72916 -0.28646,0.36459 -0.57292,0.70313 -0.26042,0.33854 -0.46875,0.44271 -0.3125,0.20833 -1.14583,0.72916 -0.80729,0.49479 -1.71875,1.04167 -0.88542,0.52083 -1.61458,1.04166 -0.72917,0.4948 -0.83334,0.625 0,0.20834 0.10417,0.36459 0.10417,0.15625 0.18229,0.28646 0.3125,0.36458 0.625,0.67708 0.3125,0.28646 0.36459,0.80729 0,0.18229 -0.23438,0.625 -0.20833,0.44271 -0.49479,0.88542 -0.26042,0.41666 -0.57292,0.72916 -0.28646,0.3125 -0.44271,0.26042 l -0.96354,-0.41667 q -0.20833,-0.10416 -0.46875,-0.18229 -0.26041,-0.10417 -0.52083,-0.13021 -0.26042,-0.0521 -0.52083,0.026 -0.23438,0.0781 -0.39063,0.39063 -0.41666,0.70312 -0.80729,1.27604 -0.36458,0.57292 -0.78125,1.01562 -0.39062,0.41667 -0.9375,0.67709 -0.52083,0.26041 -1.25,0.39062 0.0521,2.42187 -0.57291,5.23437 -0.625,2.78646 -1.97917,5.26042 -1.30208,2.52604 -3.38541,4.14062 -2.05729,1.58854 -4.92187,1.61458 -1.61459,-0.026 -2.78646,-0.57291 -1.14583,-0.54688 -1.84896,-1.48438 -0.70312,-0.96354 -1.04166,-2.26562 -0.3125,-1.30209 -0.28646,-2.73438 0.13021,-2.21354 0.80729,-4.11458 0.67708,-1.90104 1.64062,-3.8802 0.026,0 0.10417,-0.18229 0.10417,-0.1823 0.23437,-0.39063 0.15625,-0.20833 0.28646,-0.36458 0.13021,-0.15625 0.20833,-0.10417 0.026,0.10417 0,0.36458 0,0.26042 -0.20833,0.59896 -0.625,1.45833 -1.11979,3.38542 -0.49479,1.92708 -0.28646,3.67187 0.13021,0.83333 0.44271,1.64062 0.3125,0.78125 0.85938,1.35417 0.57291,0.57292 1.45833,0.96354 0.91146,0.36458 2.16145,0.36458 2.68229,0.0521 4.47917,-1.04166 1.79687,-1.09375 2.86458,-2.8125 1.06771,-1.74479 1.48437,-3.98437 0.44271,-2.23959 0.28646,-4.50521 0,-0.20833 0,-0.625 0,-0.41666 0.0521,-0.83333 0.0781,-0.41667 0.1302,-0.80729 0.0521,-0.41667 0.13021,-0.65104 0.13021,-0.13021 0.26042,0.10416 0.85937,0.3125 1.53646,0.13021 0.70312,-0.18229 1.25,-0.65104 0.57291,-0.49479 1.01562,-1.11979 0.44271,-0.65104 0.88542,-1.22396 0.46875,-0.59896 0.91145,-1.06771 0.44271,-0.49479 0.96354,-0.59895 -0.026,-0.28646 0.20834,-0.59896 0.23437,-0.33854 0.52083,-0.65104 0.3125,-0.33855 0.625,-0.625 0.33854,-0.3125 0.54688,-0.46875 0.85937,-0.78125 2.03124,-1.38021 1.19792,-0.59896 2.29167,-1.27604 0.28646,-0.18229 0.44271,-0.28646 0.15625,-0.13021 -0.26042,-0.23437 -0.625,-0.1823 -1.19791,-0.23438 -0.54688,-0.0781 -1.19792,-0.0521 -0.49479,0 -1.01563,0.0521 -0.49479,0.0521 -0.98958,0.33854 -0.3125,0.15625 -0.52083,0.41667 -0.18229,0.26042 -0.44271,0.49479 -0.0781,0.0521 -0.18229,-0.0521 -0.10417,-0.10417 -0.026,-0.18229 0.0521,-0.26042 0.23437,-0.54688 0.20834,-0.3125 0.41667,-0.54687 0.54687,-1.14584 1.69271,-1.48438 z m -39.53123,11.48437 q 0.75521,0.20833 1.64062,0.49479 0.88542,0.28646 1.35417,0.85938 0.13021,0.15625 0.15625,0.39062 0.026,0.20833 -0.026,0.41667 -0.23438,1.14583 -0.83333,2.21354 -0.57292,1.04166 -1.53646,1.51041 -0.98958,0.59896 -1.92708,0.88542 -0.91146,0.28646 -1.77084,0.59896 -0.83333,0.28646 -1.51041,0.72916 -0.65104,0.41667 -1.06771,1.17188 -0.625,1.01562 -0.96354,2.60416 -0.3125,1.58854 -0.52083,3.30729 -0.1823,1.71875 -0.26042,3.41146 -0.0521,1.69271 -0.0781,2.89062 l 0.13021,7.55208 q 0,0.72917 -0.13021,1.61458 -0.10416,0.91146 -0.3125,1.35417 -0.0781,0.10417 -0.20833,0.0781 -0.13021,0 -0.13021,-0.20833 -0.0521,-0.65104 -0.10416,-1.27604 -0.0521,-0.625 -0.0521,-1.25 -0.10416,-2.68229 -0.23437,-5.39062 -0.10417,-2.68229 0,-5.36458 0.10416,-1.79688 0.36458,-3.98437 0.28646,-2.1875 0.96354,-4.24479 0.67709,-2.05729 1.79688,-3.75 1.14583,-1.69271 2.91666,-2.52604 -0.15625,0 -0.23437,-0.0521 -0.0521,-0.0781 -0.0521,-0.13021 0.18229,-0.88542 0.67709,-2.00521 0.49479,-1.14583 1.17187,-2.23958 0.67708,-1.11979 1.48437,-2.08333 0.8073,-0.96354 1.58855,-1.45834 0.46874,-0.28645 1.19791,-0.49479 0.75521,-0.23437 1.30208,0.026 0.23438,0.1823 0.44271,0.41667 0.20834,0.23438 0.65104,0.23438 0.54688,-0.0521 1.09375,-0.33855 0.54688,-0.28645 0.9375,-0.57291 0.9375,-0.65104 1.82292,-1.45833 0.91146,-0.83334 1.71875,-1.66667 -0.88542,-0.10417 -1.61459,-0.41667 -0.70312,-0.33854 -1.45833,-0.33854 -0.9375,-0.10417 -1.66666,0.85938 -0.13021,0.0781 -0.23438,0.18229 -0.10417,0.10416 -0.28646,-0.0781 -0.0521,-0.026 0.026,-0.23437 0.0781,-0.20834 0.23438,-0.46875 0.15625,-0.26042 0.28646,-0.44271 0.15625,-0.20833 0.20833,-0.26042 0.57292,-0.54687 1.09375,-0.88541 0.54687,-0.36459 1.25,-0.36459 0.41667,0.0521 0.88542,0.20834 0.46875,0.13021 0.9375,0.3125 0.46874,0.18229 0.98958,0.33854 0.52083,0.15625 1.04166,0.10417 0.1823,-0.0521 0.4948,-0.15625 0.31249,-0.10417 0.39062,0.0521 0.20833,0.18229 -0.10417,0.39062 -0.3125,0.20834 -0.49479,0.41667 -0.70312,0.83333 -1.77083,2.03125 -1.04167,1.17187 -2.21354,2.31771 -1.14583,1.11979 -2.26562,1.95312 -1.1198,0.80729 -1.95313,0.80729 -0.26041,0 -0.52083,-0.13021 -0.23438,-0.15625 -0.52083,-0.28646 -0.26042,-0.15625 -0.57292,-0.28645 -0.28646,-0.13021 -0.625,-0.0781 -0.44271,0 -0.88542,0.23438 -0.41666,0.23437 -0.83333,0.57291 -0.41667,0.3125 -0.72917,0.70313 -0.3125,0.36458 -0.54687,0.67708 z m 67.05725,-8.72395 q -0.0781,0.54687 -0.39062,1.04166 -0.3125,0.49479 -0.9375,0.57292 -0.23438,0.0781 -0.39063,-0.0521 -0.15625,-0.13021 -0.28646,-0.0521 -0.0781,0 -0.3125,0.23438 -0.20833,0.20833 -0.72916,0.20833 -0.3125,0.0781 -0.59896,-0.13021 -0.28646,-0.20833 -0.28646,-0.70312 -0.0521,-0.26042 0.0781,-0.65104 0.15625,-0.41667 0.36458,-0.65104 0.33854,-0.33855 0.23438,0 -0.10417,0.18229 -0.1823,0.41666 -0.0521,0.20833 0.026,0.33854 0.1302,0.28646 0.33854,0.33854 0.23437,0.0521 0.46875,0.026 0.0781,0 0.28645,-0.13021 0.23438,-0.13021 0.28646,-0.26042 0.0781,-0.20833 0.10417,-0.46875 0.0521,-0.26041 0.18229,-0.52083 0.18229,-0.10417 0.18229,0.0781 0,0.1823 0,0.26042 0,0.41667 0.026,0.52083 0.15625,0.23438 0.4948,0.13021 0.33854,-0.10417 0.57291,-0.41667 0.0781,-0.1302 0.0781,-0.39062 0,-0.28646 0.28646,-0.70312 0,-0.10417 0.0521,-0.1823 0.0521,-0.0781 0.0521,0.0781 0.0521,0.20833 0.0521,0.54687 0,0.3125 -0.0521,0.52084 z m -35.46873,6.19791 q -0.10416,0.0781 -0.13021,-0.0521 0,-0.15625 -0.0521,-0.36459 -0.0521,-1.22395 -0.28646,-2.3177 -0.20833,-1.11979 -1.11979,-2.10938 0,-0.0781 0.15625,-0.54687 0.15625,-0.49479 0.23438,-0.65104 0.7552,0.52083 1.14583,1.5625 0.39062,1.01562 0.39062,1.90104 0,0.41666 -0.026,1.09375 -0.026,0.65104 -0.10416,1.0677 -0.10417,0.41667 -0.20834,0.41667 z m 21.24999,9.45312 q -0.18229,0.18229 -0.36458,0.0521 -0.15625,-0.13021 -0.0521,-0.39062 0.10417,-0.28646 0.41667,-0.65104 0.3125,-0.39063 0.625,-0.78125 0.33854,-0.39063 0.72917,-0.78125 0.39062,-0.39063 0.57291,-0.625 0.9375,-0.91146 1.66667,-2.00521 0.75521,-1.11979 1.38021,-2.13542 0.20833,-0.31249 0.39062,-0.46874 0.18229,-0.15625 0.10417,0.23437 -0.026,0.39062 -0.15625,0.67708 -0.10417,0.26042 -0.026,0.67709 0.23437,0.88541 1.09374,1.32812 0.52084,0.36458 1.09375,0.41667 0.57292,0.0521 1.14584,-0.13021 0.57291,-0.20833 1.04166,-0.54688 0.46875,-0.33854 0.83334,-0.80729 0.33854,-0.54687 0.54687,-1.09375 0.20833,-0.54687 0.44271,-1.09375 0,-0.0521 0.0521,-0.20833 0.0781,-0.15625 0.15625,-0.26042 0.0781,-0.1302 0.15625,-0.18229 0.0781,-0.0781 0.18229,0.0521 0.0781,0.3125 0.026,0.65104 -0.026,0.33854 0.0521,0.59896 0.26041,0.80729 1.01562,1.17187 0.78125,0.33854 1.58854,0.26042 0.80729,-0.10417 1.43229,-0.4948 0.65105,-0.41666 0.65105,-1.14583 0.026,-0.72916 -0.026,-1.45833 -0.0521,-0.75521 0,-1.38021 0.026,-0.15625 0.1823,-0.54687 0.15624,-0.41667 0.33854,-0.88542 0.18229,-0.46875 0.39062,-0.91146 0.20833,-0.4427 0.39063,-0.7552 0.33854,-0.4948 0.33854,0.10416 0.0781,0.59896 0.13021,1.43229 0.0521,0.80729 -0.026,1.53646 -0.0781,0.9375 -0.36458,2.23958 -0.26042,1.30208 -0.83333,2.55208 -0.54688,1.25 -1.48438,2.23959 -0.9375,0.98958 -2.23958,1.25 -0.80729,0.0521 -1.45833,-0.3125 -0.65104,-0.39063 -1.14583,-0.9375 -0.0521,-0.0781 -0.13021,-0.1823 -0.0521,-0.1302 -0.20833,-0.26041 -0.9375,1.51041 -1.61459,2.21354 -0.65104,0.70312 -1.66666,0.96354 -1.09375,0.3125 -2.10938,-0.23438 -1.01562,-0.57291 -1.40625,-2.18749 -0.0521,-0.33855 -0.26041,-0.10417 -0.18229,0.20833 -0.28646,0.28646 -0.85937,0.75521 -1.82292,1.5625 -0.9375,0.80729 -1.48437,1.45833 z"
       id="text2" />
  </g>
</svg>
